<svg width="36" height="36" viewBox="0 0 36 36" fill="none" xmlns="http://www.w3.org/2000/svg">
<rect x="1.13" y="0.640015" width="34.19" height="34.19" rx="17.095" stroke="#00EEFF"/>
<path d="M24.7856 14.2259C24.7742 13.9396 24.7427 13.6562 24.6911 13.3756C24.6395 13.095 24.5622 12.8288 24.4591 12.5768L24.4762 12.6112C24.3044 12.1646 24.0523 11.7752 23.72 11.4431C23.3877 11.111 23.0038 10.8591 22.5684 10.6873L22.5512 10.6701C22.3106 10.5785 22.0557 10.5069 21.7864 10.4554C21.5171 10.4038 21.2393 10.3781 20.9528 10.3781H20.9356C20.5804 10.3552 20.2624 10.3409 19.9817 10.3351C19.701 10.3294 19.1137 10.3266 18.22 10.3266C17.3262 10.3266 16.7361 10.3294 16.4497 10.3351C16.1632 10.3409 15.8481 10.3552 15.5044 10.3781C15.2065 10.3781 14.9229 10.4067 14.6536 10.464C14.3843 10.5212 14.1236 10.5957 13.8716 10.6873L13.8887 10.6701C13.4533 10.8533 13.0695 11.111 12.7372 11.4431C12.4049 11.7752 12.1528 12.1531 11.9809 12.5768L11.9637 12.6112C11.8721 12.8517 11.8005 13.1065 11.7489 13.3756C11.6973 13.6447 11.6658 13.9224 11.6544 14.2087C11.6429 14.5637 11.6343 14.8815 11.6286 15.1621C11.6229 15.4427 11.62 16.0296 11.62 16.9228C11.62 17.816 11.62 18.4058 11.62 18.6921C11.62 18.9784 11.6315 19.2991 11.6544 19.6541C11.6658 19.9289 11.6973 20.198 11.7489 20.4614C11.8005 20.7248 11.8721 20.9882 11.9637 21.2516C12.1356 21.6982 12.3877 22.0876 12.72 22.4197C13.0523 22.7518 13.4361 23.0037 13.8716 23.1755H13.9059C14.1351 23.2786 14.3843 23.3587 14.6536 23.416C14.9229 23.4732 15.2007 23.5019 15.4872 23.5019H15.5044C15.8596 23.5248 16.1775 23.5391 16.4583 23.5448C16.739 23.5505 17.3262 23.5534 18.22 23.5534C19.1137 23.5534 19.7038 23.5505 19.9903 23.5448C20.2768 23.5391 20.5919 23.5248 20.9356 23.5019C21.2335 23.5019 21.5171 23.4732 21.7864 23.416C22.0557 23.3587 22.3221 23.2843 22.5856 23.1927L22.5512 23.2099C22.9867 23.0266 23.3705 22.769 23.7028 22.4369C24.0351 22.1048 24.2872 21.7268 24.4591 21.3031L24.4762 21.2688C24.5679 21.0168 24.6395 20.7563 24.6911 20.4872C24.7427 20.2181 24.7742 19.9461 24.7856 19.6712C24.7971 19.3162 24.8057 18.9984 24.8114 18.7179C24.8171 18.4373 24.82 17.8504 24.82 16.9572C24.82 16.0525 24.82 15.4598 24.82 15.1793C24.82 14.8987 24.8085 14.5809 24.7856 14.2259ZM18.22 20.3068C17.7502 20.3068 17.3091 20.2209 16.8966 20.0491C16.4841 19.8659 16.1231 19.6226 15.8137 19.3191C15.5044 19.0156 15.2637 18.6578 15.0919 18.2455C14.9085 17.8332 14.8169 17.3923 14.8169 16.9228C14.8169 16.4533 14.9085 16.0124 15.0919 15.6001C15.2637 15.1878 15.5044 14.83 15.8137 14.5265C16.1231 14.223 16.4841 13.9797 16.8966 13.7965C17.3091 13.6247 17.7502 13.5388 18.22 13.5388C18.6898 13.5388 19.1309 13.6247 19.5434 13.7965C19.9445 13.9797 20.2997 14.223 20.6091 14.5265C20.9184 14.83 21.1591 15.1878 21.3309 15.6001C21.5143 16.0124 21.6059 16.4533 21.6059 16.9228C21.6059 17.3923 21.5143 17.8332 21.3309 18.2455C21.1591 18.6578 20.9184 19.0156 20.6091 19.3191C20.2997 19.6226 19.9445 19.8659 19.5434 20.0491C19.1309 20.2209 18.6898 20.3068 18.22 20.3068ZM21.7434 14.2087C21.5257 14.2087 21.3395 14.1314 21.1848 13.9768C21.0302 13.8222 20.9528 13.6361 20.9528 13.4185C20.9528 13.201 21.0302 13.0149 21.1848 12.8603C21.3395 12.7057 21.5257 12.6284 21.7434 12.6284C21.9611 12.6284 22.1473 12.7057 22.302 12.8603C22.4567 13.0149 22.5341 13.201 22.5341 13.4185C22.5341 13.6361 22.4567 13.8222 22.302 13.9768C22.1473 14.1314 21.9611 14.2087 21.7434 14.2087ZM20.42 16.9228C20.42 17.5297 20.2052 18.0479 19.7755 18.4774C19.3458 18.9068 18.8273 19.1216 18.22 19.1216C17.6127 19.1216 17.0942 18.9068 16.6645 18.4774C16.2348 18.0479 16.02 17.5297 16.02 16.9228C16.02 16.3159 16.2348 15.7977 16.6645 15.3682C17.0942 14.9388 17.6127 14.7241 18.22 14.7241C18.8273 14.7241 19.3458 14.9388 19.7755 15.3682C20.2052 15.7977 20.42 16.3159 20.42 16.9228Z" fill="#00EEFF"/>
</svg>
