<svg width="36" height="36" viewBox="0 0 36 36" fill="none" xmlns="http://www.w3.org/2000/svg">
<rect x="0.859985" y="0.640015" width="34.19" height="34.19" rx="17.095" stroke="#00EEFF"/>
<path d="M14.4165 11.821C14.4165 12.2562 14.259 12.6313 13.9441 12.9462C13.6291 13.2611 13.2541 13.4186 12.8189 13.4186C12.3723 13.4186 11.9915 13.2611 11.6766 12.9462C11.3617 12.6313 11.2042 12.2562 11.2042 11.821C11.2042 11.3744 11.3617 10.9936 11.6766 10.6787C11.9915 10.3638 12.3723 10.2063 12.8189 10.2063C13.2541 10.2063 13.6291 10.3638 13.9441 10.6787C14.259 10.9936 14.4165 11.3744 14.4165 11.821ZM15.9281 14.6382V23.5363H18.6937V19.1388C18.6937 18.5547 18.7911 18.0279 18.9857 17.5584C19.1804 17.0889 19.6328 16.8541 20.3428 16.8541C21.0528 16.8541 21.4708 17.1175 21.5968 17.6443C21.7227 18.1711 21.7857 18.6921 21.7857 19.2075V23.5363H24.5513V18.6578C24.5513 17.4553 24.3481 16.4476 23.9415 15.6345C23.535 14.8214 22.6331 14.4149 21.236 14.4149C20.5604 14.4149 20.0021 14.5666 19.5612 14.8701C19.1203 15.1736 18.8082 15.5028 18.625 15.8578H18.5735V14.6382H15.9281ZM11.4275 14.6382H14.1931V23.5363H11.4275V14.6382Z" fill="#00EEFF"/>
</svg>
