<svg width="36" height="36" viewBox="0 0 36 36" fill="none" xmlns="http://www.w3.org/2000/svg">
<rect x="0.660034" y="0.640015" width="34.19" height="34.19" rx="17.095" stroke="#00EEFF"/>
<path d="M18.7813 23.5363V17.524H20.8094L21.1016 15.1707H18.7813V13.6762C18.7813 13.3327 18.8529 13.055 18.9961 12.8431C19.1393 12.6313 19.4516 12.5253 19.9328 12.5253H21.1703V10.4296C20.9068 10.4067 20.6261 10.3867 20.3281 10.3695C20.0302 10.3523 19.7323 10.3438 19.4344 10.3438C19.4229 10.3438 19.4115 10.3438 19.4 10.3438C19.3886 10.3438 19.3771 10.3438 19.3656 10.3438C18.4719 10.3438 17.7443 10.61 17.1828 11.1425C16.6214 11.675 16.3406 12.4452 16.3406 13.4529V15.1707H14.3297V17.524H16.3406V23.5363H18.7813Z" fill="#00EEFF"/>
</svg>
