<svg width="37" height="36" viewBox="0 0 37 36" fill="none" xmlns="http://www.w3.org/2000/svg">
<rect x="1.39001" y="0.640015" width="34.19" height="34.19" rx="17.095" stroke="#00EEFF"/>
<path d="M24.0849 14.0026C24.0849 14.0713 24.0849 14.1372 24.0849 14.2002C24.0849 14.2631 24.0849 14.329 24.0849 14.3977C24.0849 15.3711 23.9017 16.356 23.5352 17.3523C23.1688 18.3486 22.6305 19.2504 21.9205 20.0578C21.2105 20.8651 20.3344 21.5207 19.2923 22.0246C18.2502 22.5399 17.0478 22.7976 15.685 22.7976C14.849 22.7976 14.0474 22.6802 13.2801 22.4455C12.5129 22.2107 11.8028 21.8815 11.1501 21.4577C11.2761 21.4806 11.3963 21.4921 11.5108 21.4921C11.6253 21.4921 11.7456 21.4921 11.8716 21.4921C11.8716 21.4921 11.8773 21.4921 11.8887 21.4921C12.5758 21.4921 13.2315 21.3804 13.8556 21.1571C14.4797 20.9338 15.0437 20.6218 15.5476 20.2209L15.5304 20.2381C14.8891 20.2267 14.3194 20.032 13.8212 19.6541C13.3231 19.2762 12.9767 18.7952 12.782 18.2112V18.194C12.8621 18.2054 12.9509 18.2169 13.0482 18.2283C13.1456 18.2398 13.24 18.2455 13.3317 18.2455C13.4691 18.2455 13.6008 18.2341 13.7267 18.2112C13.8527 18.1882 13.9787 18.1653 14.1047 18.1424C13.429 17.9936 12.865 17.65 12.4126 17.1118C11.9603 16.5735 11.7341 15.9494 11.7341 15.2394V15.205C11.9403 15.3081 12.155 15.394 12.3783 15.4627C12.6016 15.5314 12.8335 15.5715 13.074 15.583C12.6732 15.3081 12.3525 14.956 12.112 14.5265C11.8716 14.0971 11.7513 13.6304 11.7513 13.1265C11.7513 12.8517 11.7885 12.5883 11.863 12.3364C11.9374 12.0844 12.0376 11.8497 12.1636 11.6321C12.53 12.0787 12.9366 12.4852 13.3832 12.8517C13.8298 13.2182 14.3108 13.5331 14.8261 13.7965C15.3415 14.0599 15.8854 14.2717 16.458 14.4321C17.0306 14.5924 17.6204 14.6897 18.2273 14.7241H18.2445C18.2216 14.6096 18.2044 14.495 18.193 14.3805C18.1815 14.266 18.1758 14.1515 18.1758 14.037C18.1758 13.2239 18.4649 12.5282 19.0433 11.9499C19.6216 11.3716 20.3173 11.0824 21.1303 11.0824C21.5541 11.0824 21.952 11.1683 22.3242 11.3401C22.6964 11.5118 23.0142 11.7409 23.2776 12.0272C23.6326 11.9585 23.9675 11.8611 24.2825 11.7351C24.5974 11.6092 24.898 11.4603 25.1843 11.2885L25.1499 11.3057C25.0354 11.6607 24.8694 11.9756 24.6518 12.2505C24.4342 12.5253 24.1765 12.7544 23.8788 12.9376H23.8616C24.1708 12.9032 24.4714 12.846 24.7634 12.7658C25.0555 12.6856 25.3332 12.5826 25.5966 12.4566L25.5622 12.4738C25.3561 12.7715 25.1299 13.0464 24.8837 13.2983C24.6375 13.5503 24.3769 13.7793 24.1021 13.9854L24.0849 14.0026Z" fill="#00EEFF"/>
</svg>
